<?xml version="1.0" encoding="UTF-8"?>
<svg version="1.1" xmlns="http://www.w3.org/2000/svg" width="139" height="45">
<path d="M0 0 C45.87 0 91.74 0 139 0 C139 14.85 139 29.7 139 45 C93.13 45 47.26 45 0 45 C0 30.15 0 15.3 0 0 Z " fill="#FDFEFE" transform="translate(0,0)"/>
<path d="M0 0 C2.64 0 5.28 0 8 0 C8 0.66 8 1.32 8 2 C8.99 1.34 9.98 0.68 11 0 C14.5625 -0.3125 14.5625 -0.3125 18 0 C20 3 20 3 20 7 C17.36 7 14.72 7 12 7 C12 7.66 12 8.32 12 9 C14.64 8.67 17.28 8.34 20 8 C19 11 19 11 17 12 C11.74534161 12.44720497 11.74534161 12.44720497 9.125 10.875 C7.5317901 8.21965017 7.79785968 6.03210482 8 3 C6.68 3 5.36 3 4 3 C4 5.97 4 8.94 4 12 C2.68 12 1.36 12 0 12 C0 8.04 0 4.08 0 0 Z " fill="#AECDCF" transform="translate(26,17)"/>
<path d="M0 0 C2.81256281 -0.02684312 5.62487241 -0.04676188 8.4375 -0.0625 C9.23994141 -0.07087891 10.04238281 -0.07925781 10.86914062 -0.08789062 C12.91295221 -0.0965143 14.95683902 -0.0522815 17 0 C18 1 18 1 18.09765625 3.50390625 C18.08605469 4.51324219 18.07445313 5.52257812 18.0625 6.5625 C18.05347656 7.57441406 18.04445313 8.58632813 18.03515625 9.62890625 C18.02355469 10.41136719 18.01195313 11.19382812 18 12 C16.68 12 15.36 12 14 12 C14 8.7 14 5.4 14 2 C13.01 2.495 13.01 2.495 12 3 C11.53348793 5.12576782 11.53348793 5.12576782 11.375 7.5625 C11.30023438 8.38878906 11.22546875 9.21507812 11.1484375 10.06640625 C11.09945312 10.70449219 11.05046875 11.34257812 11 12 C9.68 12 8.36 12 7 12 C7 9.03 7 6.06 7 3 C6.01 3 5.02 3 4 3 C4 5.97 4 8.94 4 12 C2.68 12 1.36 12 0 12 C0 8.04 0 4.08 0 0 Z " fill="#B3CED1" transform="translate(88,17)"/>
<path d="M0 0 C5.98755832 -0.65318818 5.98755832 -0.65318818 8.9375 1.25 C10 3 10 3 10 7 C7.36 7 4.72 7 2 7 C2 7.66 2 8.32 2 9 C4.64 8.67 7.28 8.34 10 8 C9 11 9 11 7 12 C1.74534161 12.44720497 1.74534161 12.44720497 -0.875 10.875 C-2.51151479 8.14747535 -2.32502803 6.12026907 -2 3 C-1.34 2.01 -0.68 1.02 0 0 Z " fill="#AFCACB" transform="translate(110,17)"/>
<path d="M0 0 C3.5 0.25 3.5 0.25 5.5 2.25 C5.625 4.875 5.625 4.875 5.5 7.25 C3.19 7.58 0.88 7.91 -1.5 8.25 C0.81 8.25 3.12 8.25 5.5 8.25 C5.17 9.24 4.84 10.23 4.5 11.25 C-1.87426409 12.57296047 -1.87426409 12.57296047 -4.4375 11.25 C-6.06192132 8.19226576 -5.80839752 5.64237275 -5.5 2.25 C-3.5 0.25 -3.5 0.25 0 0 Z " fill="#A9C7C9" transform="translate(73.5,16.75)"/>
<path d="M0 0 C1.60875 -0.04125 3.2175 -0.0825 4.875 -0.125 C5.77992187 -0.14820312 6.68484375 -0.17140625 7.6171875 -0.1953125 C10 0 10 0 12 2 C12.1953125 4.3828125 12.1953125 4.3828125 12.125 7.125 C12.10695313 8.03507812 12.08890625 8.94515625 12.0703125 9.8828125 C12.04710938 10.58148438 12.02390625 11.28015625 12 12 C10.68 12 9.36 12 8 12 C7.67 9.03 7.34 6.06 7 3 C6.34 3 5.68 3 5 3 C4.67 5.97 4.34 8.94 4 12 C2.68 12 1.36 12 0 12 C0 8.04 0 4.08 0 0 Z " fill="#AFCBCD" transform="translate(54,17)"/>
<path d="M0 0 C1.32 0 2.64 0 4 0 C5.23104155 3.68400584 4.90767252 6.91474976 4.5625 10.75 C4.46066406 11.92046875 4.35882813 13.0909375 4.25390625 14.296875 C4.17011719 15.18890625 4.08632813 16.0809375 4 17 C2.68 17 1.36 17 0 17 C0 11.39 0 5.78 0 0 Z " fill="#A9C6C8" transform="translate(48,12)"/>
<path d="M0 0 C1.32 0 2.64 0 4 0 C4 0.99 4 1.98 4 3 C4.66 3 5.32 3 6 3 C6 3.66 6 4.32 6 5 C5.34 5 4.68 5 4 5 C4 7.31 4 9.62 4 12 C4.66 12 5.32 12 6 12 C6 12.99 6 13.98 6 15 C1.125 14.125 1.125 14.125 0 13 C-0.26087055 11.3826026 -0.45964436 9.75493414 -0.625 8.125 C-0.72039063 7.24070312 -0.81578125 6.35640625 -0.9140625 5.4453125 C-1 3 -1 3 0 0 Z " fill="#AAC8CD" transform="translate(18,14)"/>
<path d="M0 0 C0.33 0 0.66 0 1 0 C1 1.65 1 3.3 1 5 C2.65 4.67 4.3 4.34 6 4 C6 5.32 6 6.64 6 8 C5.2575 7.814375 4.515 7.62875 3.75 7.4375 C1.05009037 7.00796892 -0.44631077 7.14877026 -3 8 C-2.01 6.68 -1.02 5.36 0 4 C-2.31 4.33 -4.62 4.66 -7 5 C-7.33 4.34 -7.66 3.68 -8 3 C-5.36 3 -2.72 3 0 3 C0 2.01 0 1.02 0 0 Z " fill="#D8EAEA" transform="translate(79,21)"/>
<path d="M0 0 C2.33294775 -0.04241723 4.66702567 -0.04092937 7 0 C8 1 8 1 8 6 C4.7 6.33 1.4 6.66 -2 7 C-1.67 5.68 -1.34 4.36 -1 3 C-0.67 3.66 -0.34 4.32 0 5 C1.98 5 3.96 5 6 5 C5.67 4.34 5.34 3.68 5 3 C2.47266765 2.34444881 2.47266765 2.34444881 0 2 C0 1.34 0 0.68 0 0 Z " fill="#9CC1C2" transform="translate(37,17)"/>
<path d="M0 0 C0.33 0.66 0.66 1.32 1 2 C1.99 1.67 2.98 1.34 4 1 C7.1875 1.9375 7.1875 1.9375 10 3 C10 3.66 10 4.32 10 5 C8.00045254 5.04254356 5.99958364 5.04080783 4 5 C3.67 4.67 3.34 4.34 3 4 C2.67 5.65 2.34 7.3 2 9 C1.67 9 1.34 9 1 9 C1 7.02 1 5.04 1 3 C0.01 2.67 -0.98 2.34 -2 2 C-1.34 2 -0.68 2 0 2 C0 1.34 0 0.68 0 0 Z " fill="#C9DFE3" transform="translate(33,17)"/>
<path d="M0 0 C1.32 0 2.64 0 4 0 C5.23104155 3.68400584 4.90767252 6.91474976 4.5625 10.75 C4.46066406 11.92046875 4.35882813 13.0909375 4.25390625 14.296875 C4.17011719 15.18890625 4.08632813 16.0809375 4 17 C3.67 17 3.34 17 3 17 C3 13.04 3 9.08 3 5 C2.01 5 1.02 5 0 5 C0 3.35 0 1.7 0 0 Z " fill="#CCE2E3" transform="translate(48,12)"/>
<path d="M0 0 C1.65 0 3.3 0 5 0 C5.66 1.65 6.32 3.3 7 5 C5.02 5 3.04 5 1 5 C1 4.34 1 3.68 1 3 C0.34 3 -0.32 3 -1 3 C-0.67 2.01 -0.34 1.02 0 0 Z " fill="#BCD8D9" transform="translate(110,17)"/>
<path d="M0 0 C1.32 0.66 2.64 1.32 4 2 C3 4 3 4 2 5 C0.00041636 5.04080783 -2.00045254 5.04254356 -4 5 C-3.67 4.01 -3.34 3.02 -3 2 C-2.01 2 -1.02 2 0 2 C0 1.34 0 0.68 0 0 Z " fill="#BFDBDC" transform="translate(75,17)"/>
<path d="M0 0 C0.99 0 1.98 0 3 0 C3 3.3 3 6.6 3 10 C2.34 10 1.68 10 1 10 C0.67 6.7 0.34 3.4 0 0 Z " fill="#A0C0C1" transform="translate(102,18)"/>
<path d="M0 0 C2.31 0 4.62 0 7 0 C7.33 0.99 7.66 1.98 8 3 C5.36 2.67 2.72 2.34 0 2 C0 1.34 0 0.68 0 0 Z " fill="#A7C6C7" transform="translate(37,17)"/>
</svg>
