<?xml version="1.0" encoding="UTF-8"?>
<svg xmlns="http://www.w3.org/2000/svg" xmlns:xlink="http://www.w3.org/1999/xlink" width="20px" height="20px" viewBox="0 0 20 20" version="1.1">
<g id="surface1">
<path style=" stroke:none;fill-rule:nonzero;fill:rgb(0%,76.47059%,27.058825%);fill-opacity:1;" d="M 12.054688 0.761719 C 12.117188 0.777344 12.179688 0.789062 12.242188 0.796875 C 12.6875 0.886719 13.113281 1.035156 13.535156 1.203125 L 13.59375 1.222656 C 13.625 1.234375 13.652344 1.25 13.683594 1.257812 C 13.714844 1.273438 13.746094 1.285156 13.777344 1.296875 C 13.96875 1.375 14.15625 1.46875 14.34375 1.558594 C 14.398438 1.589844 14.457031 1.617188 14.515625 1.644531 L 14.628906 1.703125 L 14.679688 1.726562 C 14.789062 1.78125 14.882812 1.839844 14.980469 1.910156 C 15.023438 1.9375 15.0625 1.964844 15.109375 1.988281 C 15.210938 2.042969 15.304688 2.109375 15.402344 2.175781 C 15.453125 2.210938 15.453125 2.210938 15.496094 2.234375 L 15.496094 2.273438 L 15.535156 2.285156 C 15.601562 2.316406 15.65625 2.355469 15.710938 2.398438 L 15.746094 2.425781 C 15.769531 2.445312 15.792969 2.460938 15.816406 2.480469 C 15.84375 2.503906 15.871094 2.523438 15.898438 2.546875 C 16.027344 2.648438 16.144531 2.753906 16.261719 2.867188 C 16.328125 2.925781 16.390625 2.984375 16.457031 3.042969 C 16.519531 3.097656 16.578125 3.152344 16.632812 3.210938 L 16.726562 3.304688 C 16.796875 3.371094 16.859375 3.4375 16.929688 3.5 C 16.957031 3.53125 16.988281 3.558594 17.015625 3.585938 C 17.039062 3.609375 17.054688 3.625 17.078125 3.648438 C 17.210938 3.777344 17.335938 3.914062 17.453125 4.0625 C 17.480469 4.09375 17.507812 4.128906 17.53125 4.160156 C 17.589844 4.234375 17.589844 4.234375 17.589844 4.277344 L 17.628906 4.277344 C 17.707031 4.382812 17.707031 4.382812 17.707031 4.433594 L 17.746094 4.433594 C 17.773438 4.46875 17.773438 4.46875 17.808594 4.523438 L 17.84375 4.582031 L 17.882812 4.648438 L 17.921875 4.707031 C 18.070312 4.945312 18.210938 5.191406 18.335938 5.445312 L 18.375 5.519531 C 18.402344 5.570312 18.429688 5.625 18.453125 5.675781 C 18.480469 5.726562 18.507812 5.78125 18.535156 5.832031 C 18.8125 6.382812 18.8125 6.382812 18.902344 6.652344 L 18.929688 6.71875 C 19.453125 8.207031 19.640625 9.8125 19.3125 11.710938 L 19.300781 11.785156 C 19.257812 12.027344 19.203125 12.265625 19.132812 12.503906 C 19.117188 12.558594 19.101562 12.609375 19.085938 12.664062 C 19.023438 12.882812 18.957031 13.085938 18.863281 13.289062 C 18.851562 13.324219 18.835938 13.355469 18.824219 13.390625 C 18.753906 13.5625 18.683594 13.730469 18.597656 13.898438 C 18.574219 13.945312 18.554688 13.992188 18.535156 14.039062 C 18.433594 14.300781 18.28125 14.546875 18.140625 14.789062 C 18.128906 14.804688 18.117188 14.824219 18.109375 14.839844 C 17.914062 15.171875 17.679688 15.476562 17.445312 15.78125 C 17.414062 15.820312 17.386719 15.859375 17.355469 15.898438 L 17.328125 15.933594 C 17.304688 15.964844 17.28125 16 17.257812 16.03125 L 17.21875 16.074219 L 17.179688 16.074219 L 17.179688 16.113281 L 17.140625 16.113281 L 17.125 16.144531 C 17.09375 16.199219 17.0625 16.242188 17.023438 16.292969 L 16.980469 16.34375 L 16.945312 16.382812 L 16.90625 16.382812 L 16.90625 16.421875 L 16.867188 16.421875 L 16.867188 16.460938 L 16.828125 16.460938 L 16.828125 16.5 L 16.789062 16.5 L 16.789062 16.539062 L 16.75 16.539062 L 16.75 16.578125 L 16.710938 16.578125 L 16.695312 16.613281 C 16.667969 16.660156 16.640625 16.691406 16.601562 16.730469 L 16.566406 16.765625 C 16.53125 16.792969 16.53125 16.792969 16.492188 16.792969 L 16.492188 16.832031 C 16.460938 16.863281 16.425781 16.890625 16.390625 16.917969 C 16.3125 16.976562 16.3125 16.976562 16.242188 17.042969 C 16.21875 17.066406 16.21875 17.066406 16.179688 17.066406 L 16.179688 17.105469 L 16.140625 17.105469 L 16.140625 17.144531 C 16.101562 17.179688 16.058594 17.210938 16.015625 17.242188 C 15.992188 17.261719 15.96875 17.28125 15.941406 17.300781 L 15.902344 17.328125 C 15.851562 17.371094 15.804688 17.410156 15.753906 17.453125 C 15.679688 17.511719 15.601562 17.566406 15.523438 17.617188 C 15.464844 17.65625 15.410156 17.695312 15.355469 17.734375 C 15.234375 17.820312 15.109375 17.890625 14.976562 17.960938 C 14.914062 17.996094 14.851562 18.035156 14.789062 18.074219 C 14.535156 18.230469 14.261719 18.359375 13.996094 18.496094 L 13.945312 18.519531 C 13.839844 18.574219 13.726562 18.617188 13.613281 18.664062 L 13.570312 18.679688 C 12.847656 18.976562 12.042969 19.175781 11.265625 19.242188 C 11.222656 19.246094 11.179688 19.253906 11.140625 19.265625 C 10.480469 19.398438 9.761719 19.359375 9.097656 19.296875 L 9.023438 19.289062 C 8.90625 19.277344 8.789062 19.261719 8.671875 19.238281 C 8.605469 19.222656 8.535156 19.214844 8.464844 19.203125 C 8.085938 19.140625 7.714844 19.070312 7.34375 18.972656 L 7.289062 18.960938 C 7.039062 18.894531 6.796875 18.8125 6.554688 18.71875 C 6.46875 18.6875 6.378906 18.65625 6.289062 18.625 L 6.238281 18.609375 C 6.210938 18.597656 6.179688 18.589844 6.148438 18.578125 C 6.117188 18.566406 6.082031 18.554688 6.050781 18.542969 C 5.730469 18.449219 5.414062 18.554688 5.105469 18.636719 C 4.835938 18.710938 4.566406 18.777344 4.292969 18.839844 C 3.960938 18.914062 3.625 18.996094 3.296875 19.078125 L 3.222656 19.09375 C 2.972656 19.15625 2.726562 19.214844 2.480469 19.285156 C 2.394531 19.308594 2.308594 19.328125 2.222656 19.347656 L 2.179688 19.359375 C 2.074219 19.378906 1.96875 19.398438 1.859375 19.402344 L 1.808594 19.40625 C 1.464844 19.414062 1.15625 19.316406 0.886719 19.101562 C 0.808594 19.023438 0.757812 18.933594 0.703125 18.835938 L 0.679688 18.789062 C 0.414062 18.304688 0.609375 17.6875 0.746094 17.191406 C 0.777344 17.082031 0.804688 16.96875 0.835938 16.859375 L 0.871094 16.730469 C 0.894531 16.644531 0.917969 16.558594 0.941406 16.472656 C 0.980469 16.320312 1.023438 16.171875 1.0625 16.023438 C 1.09375 15.910156 1.121094 15.800781 1.152344 15.6875 L 1.203125 15.496094 C 1.234375 15.386719 1.265625 15.273438 1.300781 15.164062 C 1.351562 15 1.390625 14.839844 1.429688 14.671875 L 1.441406 14.609375 C 1.476562 14.421875 1.484375 14.25 1.433594 14.066406 L 1.414062 13.992188 C 1.386719 13.898438 1.351562 13.808594 1.3125 13.71875 L 1.273438 13.628906 L 1.257812 13.582031 C 1.105469 13.210938 0.984375 12.839844 0.882812 12.453125 L 0.867188 12.394531 C 0.792969 12.128906 0.734375 11.859375 0.6875 11.585938 C 0.660156 11.445312 0.660156 11.445312 0.625 11.300781 C 0.601562 11.199219 0.589844 11.09375 0.578125 10.988281 C 0.574219 10.96875 0.570312 10.945312 0.570312 10.921875 C 0.390625 9.292969 0.65625 7.4375 1.421875 5.96875 C 1.445312 5.917969 1.46875 5.867188 1.488281 5.8125 C 1.53125 5.703125 1.585938 5.605469 1.644531 5.5 C 1.667969 5.460938 1.691406 5.417969 1.710938 5.375 C 1.832031 5.160156 1.957031 4.949219 2.09375 4.746094 C 2.136719 4.6875 2.175781 4.625 2.214844 4.5625 C 2.277344 4.472656 2.34375 4.382812 2.410156 4.296875 L 2.441406 4.253906 C 2.542969 4.125 2.644531 4 2.746094 3.875 L 2.789062 3.820312 L 2.828125 3.773438 C 2.851562 3.742188 2.875 3.707031 2.898438 3.671875 L 2.9375 3.671875 L 2.9375 3.632812 L 2.976562 3.632812 L 2.992188 3.601562 C 3.023438 3.546875 3.0625 3.507812 3.109375 3.460938 L 3.195312 3.375 C 3.222656 3.347656 3.25 3.320312 3.28125 3.289062 L 3.386719 3.183594 C 3.429688 3.148438 3.429688 3.148438 3.46875 3.148438 L 3.46875 3.109375 L 3.507812 3.109375 L 3.507812 3.070312 L 3.546875 3.070312 L 3.546875 3.03125 L 3.585938 3.03125 L 3.585938 2.992188 C 3.613281 2.96875 3.644531 2.941406 3.675781 2.917969 C 3.765625 2.84375 3.855469 2.769531 3.9375 2.6875 C 4.039062 2.59375 4.140625 2.507812 4.25 2.429688 L 4.3125 2.382812 C 4.472656 2.265625 4.632812 2.160156 4.800781 2.058594 L 4.863281 2.015625 C 5.136719 1.847656 5.417969 1.699219 5.707031 1.554688 C 5.765625 1.527344 5.820312 1.5 5.878906 1.46875 L 5.992188 1.414062 L 6.042969 1.390625 C 6.15625 1.332031 6.269531 1.285156 6.386719 1.242188 C 6.414062 1.230469 6.4375 1.21875 6.464844 1.207031 C 6.710938 1.109375 6.957031 1.027344 7.210938 0.949219 L 7.257812 0.933594 C 7.914062 0.726562 8.597656 0.636719 9.28125 0.5625 C 9.316406 0.558594 9.351562 0.554688 9.390625 0.550781 C 10.253906 0.46875 11.214844 0.542969 12.054688 0.761719 "/>
<path style=" stroke:none;fill-rule:nonzero;fill:rgb(98.039216%,98.431373%,98.039216%);fill-opacity:1;" d="M 12.054688 0.761719 C 12.117188 0.777344 12.179688 0.789062 12.242188 0.796875 C 12.6875 0.886719 13.113281 1.035156 13.535156 1.203125 L 13.59375 1.222656 C 13.625 1.234375 13.652344 1.25 13.683594 1.257812 C 13.714844 1.273438 13.746094 1.285156 13.777344 1.296875 C 13.96875 1.375 14.15625 1.46875 14.34375 1.558594 C 14.398438 1.589844 14.457031 1.617188 14.515625 1.644531 L 14.628906 1.703125 L 14.679688 1.726562 C 14.789062 1.78125 14.882812 1.839844 14.980469 1.910156 C 15.023438 1.9375 15.0625 1.964844 15.109375 1.988281 C 15.210938 2.042969 15.304688 2.109375 15.402344 2.175781 C 15.453125 2.210938 15.453125 2.210938 15.496094 2.234375 L 15.496094 2.273438 L 15.535156 2.285156 C 15.601562 2.316406 15.65625 2.355469 15.710938 2.398438 L 15.746094 2.425781 C 15.769531 2.445312 15.792969 2.460938 15.816406 2.480469 C 15.84375 2.503906 15.871094 2.523438 15.898438 2.546875 C 16.027344 2.648438 16.144531 2.753906 16.261719 2.867188 C 16.328125 2.925781 16.390625 2.984375 16.457031 3.042969 C 16.519531 3.097656 16.578125 3.152344 16.632812 3.210938 L 16.726562 3.304688 C 16.796875 3.371094 16.859375 3.4375 16.929688 3.5 C 16.957031 3.53125 16.988281 3.558594 17.015625 3.585938 C 17.039062 3.609375 17.054688 3.625 17.078125 3.648438 C 17.210938 3.777344 17.335938 3.914062 17.453125 4.0625 C 17.480469 4.09375 17.507812 4.128906 17.53125 4.160156 C 17.589844 4.234375 17.589844 4.234375 17.589844 4.277344 L 17.628906 4.277344 C 17.707031 4.382812 17.707031 4.382812 17.707031 4.433594 L 17.746094 4.433594 C 17.773438 4.46875 17.773438 4.46875 17.808594 4.523438 L 17.84375 4.582031 L 17.882812 4.648438 L 17.921875 4.707031 C 18.070312 4.945312 18.210938 5.191406 18.335938 5.445312 L 18.375 5.519531 C 18.402344 5.570312 18.429688 5.625 18.453125 5.675781 C 18.480469 5.726562 18.507812 5.78125 18.535156 5.832031 C 18.8125 6.382812 18.8125 6.382812 18.902344 6.652344 L 18.929688 6.71875 C 19.453125 8.207031 19.640625 9.8125 19.3125 11.710938 L 19.300781 11.785156 C 19.257812 12.027344 19.203125 12.265625 19.132812 12.503906 C 19.117188 12.558594 19.101562 12.609375 19.085938 12.664062 C 19.023438 12.882812 18.957031 13.085938 18.863281 13.289062 C 18.851562 13.324219 18.835938 13.355469 18.824219 13.390625 C 18.753906 13.5625 18.683594 13.730469 18.597656 13.898438 C 18.574219 13.945312 18.554688 13.992188 18.535156 14.039062 C 18.433594 14.300781 18.28125 14.546875 18.140625 14.789062 C 18.128906 14.804688 18.117188 14.824219 18.109375 14.839844 C 17.914062 15.171875 17.679688 15.476562 17.445312 15.78125 C 17.414062 15.820312 17.386719 15.859375 17.355469 15.898438 L 17.328125 15.933594 C 17.304688 15.964844 17.28125 16 17.257812 16.03125 L 17.21875 16.074219 L 17.179688 16.074219 L 17.179688 16.113281 L 17.140625 16.113281 L 17.125 16.144531 C 17.09375 16.199219 17.0625 16.242188 17.023438 16.292969 L 16.980469 16.34375 L 16.945312 16.382812 L 16.90625 16.382812 L 16.90625 16.421875 L 16.867188 16.421875 L 16.867188 16.460938 L 16.828125 16.460938 L 16.828125 16.5 L 16.789062 16.5 L 16.789062 16.539062 L 16.75 16.539062 L 16.75 16.578125 L 16.710938 16.578125 L 16.695312 16.613281 C 16.667969 16.660156 16.640625 16.691406 16.601562 16.730469 L 16.566406 16.765625 C 16.53125 16.792969 16.53125 16.792969 16.492188 16.792969 L 16.492188 16.832031 C 16.460938 16.863281 16.425781 16.890625 16.390625 16.917969 C 16.3125 16.976562 16.3125 16.976562 16.242188 17.042969 C 16.21875 17.066406 16.21875 17.066406 16.179688 17.066406 L 16.179688 17.105469 L 16.140625 17.105469 L 16.140625 17.144531 C 16.101562 17.179688 16.058594 17.210938 16.015625 17.242188 C 15.992188 17.261719 15.96875 17.28125 15.941406 17.300781 L 15.902344 17.328125 C 15.851562 17.371094 15.804688 17.410156 15.753906 17.453125 C 15.679688 17.511719 15.601562 17.566406 15.523438 17.617188 C 15.464844 17.65625 15.410156 17.695312 15.355469 17.734375 C 15.234375 17.820312 15.109375 17.890625 14.976562 17.960938 C 14.914062 17.996094 14.851562 18.035156 14.789062 18.074219 C 14.535156 18.230469 14.261719 18.359375 13.996094 18.496094 L 13.945312 18.519531 C 13.839844 18.574219 13.726562 18.617188 13.613281 18.664062 L 13.570312 18.679688 C 12.847656 18.976562 12.042969 19.175781 11.265625 19.242188 C 11.222656 19.246094 11.179688 19.253906 11.140625 19.265625 C 10.480469 19.398438 9.761719 19.359375 9.097656 19.296875 L 9.023438 19.289062 C 8.90625 19.277344 8.789062 19.261719 8.671875 19.238281 C 8.605469 19.222656 8.535156 19.214844 8.464844 19.203125 C 8.085938 19.140625 7.714844 19.070312 7.34375 18.972656 L 7.289062 18.960938 C 7.039062 18.894531 6.796875 18.8125 6.554688 18.71875 C 6.46875 18.6875 6.378906 18.65625 6.289062 18.625 L 6.238281 18.609375 C 6.210938 18.597656 6.179688 18.589844 6.148438 18.578125 C 6.117188 18.566406 6.082031 18.554688 6.050781 18.542969 C 5.730469 18.449219 5.414062 18.554688 5.105469 18.636719 C 4.835938 18.710938 4.566406 18.777344 4.292969 18.839844 C 3.960938 18.914062 3.625 18.996094 3.296875 19.078125 L 3.222656 19.09375 C 2.972656 19.15625 2.726562 19.214844 2.480469 19.285156 C 2.394531 19.308594 2.308594 19.328125 2.222656 19.347656 L 2.179688 19.359375 C 2.074219 19.378906 1.96875 19.398438 1.859375 19.402344 L 1.808594 19.40625 C 1.464844 19.414062 1.15625 19.316406 0.886719 19.101562 C 0.808594 19.023438 0.757812 18.933594 0.703125 18.835938 L 0.679688 18.789062 C 0.414062 18.304688 0.609375 17.6875 0.746094 17.191406 C 0.777344 17.082031 0.804688 16.96875 0.835938 16.859375 L 0.871094 16.730469 C 0.894531 16.644531 0.917969 16.558594 0.941406 16.472656 C 0.980469 16.320312 1.023438 16.171875 1.0625 16.023438 C 1.09375 15.910156 1.121094 15.800781 1.152344 15.6875 L 1.203125 15.496094 C 1.234375 15.386719 1.265625 15.273438 1.300781 15.164062 C 1.351562 15 1.390625 14.839844 1.429688 14.671875 L 1.441406 14.609375 C 1.476562 14.421875 1.484375 14.25 1.433594 14.066406 L 1.414062 13.992188 C 1.386719 13.898438 1.351562 13.808594 1.3125 13.71875 L 1.273438 13.628906 L 1.257812 13.582031 C 1.105469 13.210938 0.984375 12.839844 0.882812 12.453125 L 0.867188 12.394531 C 0.792969 12.128906 0.734375 11.859375 0.6875 11.585938 C 0.660156 11.445312 0.660156 11.445312 0.625 11.300781 C 0.601562 11.199219 0.589844 11.09375 0.578125 10.988281 C 0.574219 10.96875 0.570312 10.945312 0.570312 10.921875 C 0.390625 9.292969 0.65625 7.4375 1.421875 5.96875 C 1.445312 5.917969 1.46875 5.867188 1.488281 5.8125 C 1.53125 5.703125 1.585938 5.605469 1.644531 5.5 C 1.667969 5.460938 1.691406 5.417969 1.710938 5.375 C 1.832031 5.160156 1.957031 4.949219 2.09375 4.746094 C 2.136719 4.6875 2.175781 4.625 2.214844 4.5625 C 2.277344 4.472656 2.34375 4.382812 2.410156 4.296875 L 2.441406 4.253906 C 2.542969 4.125 2.644531 4 2.746094 3.875 L 2.789062 3.820312 L 2.828125 3.773438 C 2.851562 3.742188 2.875 3.707031 2.898438 3.671875 L 2.9375 3.671875 L 2.9375 3.632812 L 2.976562 3.632812 L 2.992188 3.601562 C 3.023438 3.546875 3.0625 3.507812 3.109375 3.460938 L 3.195312 3.375 C 3.222656 3.347656 3.25 3.320312 3.28125 3.289062 L 3.386719 3.183594 C 3.429688 3.148438 3.429688 3.148438 3.46875 3.148438 L 3.46875 3.109375 L 3.507812 3.109375 L 3.507812 3.070312 L 3.546875 3.070312 L 3.546875 3.03125 L 3.585938 3.03125 L 3.585938 2.992188 C 3.613281 2.96875 3.644531 2.941406 3.675781 2.917969 C 3.765625 2.84375 3.855469 2.769531 3.9375 2.6875 C 4.039062 2.59375 4.140625 2.507812 4.25 2.429688 L 4.3125 2.382812 C 4.472656 2.265625 4.632812 2.160156 4.800781 2.058594 L 4.863281 2.015625 C 5.136719 1.847656 5.417969 1.699219 5.707031 1.554688 C 5.765625 1.527344 5.820312 1.5 5.878906 1.46875 L 5.992188 1.414062 L 6.042969 1.390625 C 6.15625 1.332031 6.269531 1.285156 6.386719 1.242188 C 6.414062 1.230469 6.4375 1.21875 6.464844 1.207031 C 6.710938 1.109375 6.957031 1.027344 7.210938 0.949219 L 7.257812 0.933594 C 7.914062 0.726562 8.597656 0.636719 9.28125 0.5625 C 9.316406 0.558594 9.351562 0.554688 9.390625 0.550781 C 10.253906 0.46875 11.214844 0.542969 12.054688 0.761719 M 6.777344 3.539062 L 6.738281 3.558594 C 5.140625 4.386719 3.933594 5.851562 3.289062 7.761719 C 3.226562 7.96875 3.183594 8.175781 3.140625 8.386719 L 3.128906 8.449219 C 3.117188 8.515625 3.105469 8.585938 3.09375 8.65625 C 3.09375 8.671875 3.089844 8.6875 3.085938 8.707031 C 3.042969 9 3.027344 9.285156 3.03125 9.582031 C 3.03125 9.648438 3.03125 9.71875 3.03125 9.785156 C 3.03125 10.144531 3.054688 10.492188 3.113281 10.847656 L 3.125 10.898438 C 3.179688 11.234375 3.261719 11.546875 3.367188 11.867188 L 3.390625 11.933594 C 3.558594 12.445312 3.792969 12.945312 4.09375 13.398438 L 4.121094 13.441406 C 4.140625 13.46875 4.15625 13.492188 4.175781 13.515625 C 4.226562 13.59375 4.234375 13.640625 4.222656 13.726562 C 4.199219 13.832031 4.171875 13.933594 4.140625 14.035156 L 4.121094 14.113281 C 4.105469 14.167969 4.089844 14.222656 4.078125 14.277344 C 4.050781 14.363281 4.027344 14.449219 4.003906 14.535156 C 3.9375 14.777344 3.871094 15.023438 3.800781 15.265625 C 3.769531 15.375 3.738281 15.488281 3.707031 15.601562 C 3.6875 15.671875 3.667969 15.742188 3.648438 15.808594 L 3.617188 15.9375 L 3.597656 15.992188 L 3.585938 16.046875 L 3.570312 16.089844 C 3.5625 16.136719 3.570312 16.164062 3.585938 16.210938 C 3.851562 16.140625 4.117188 16.070312 4.382812 16.003906 C 4.507812 15.96875 4.628906 15.9375 4.753906 15.90625 C 4.917969 15.863281 5.082031 15.820312 5.246094 15.777344 C 5.3125 15.761719 5.375 15.746094 5.4375 15.726562 L 5.5 15.710938 C 5.601562 15.6875 5.703125 15.65625 5.804688 15.628906 L 5.863281 15.613281 C 5.898438 15.601562 5.9375 15.59375 5.972656 15.582031 C 6.179688 15.523438 6.179688 15.523438 6.28125 15.570312 L 6.332031 15.601562 C 6.351562 15.613281 6.375 15.625 6.394531 15.640625 L 6.457031 15.679688 C 7.285156 16.167969 8.230469 16.503906 9.191406 16.601562 L 9.234375 16.605469 C 9.507812 16.632812 9.785156 16.640625 10.0625 16.640625 L 10.109375 16.640625 C 10.519531 16.640625 10.917969 16.601562 11.320312 16.519531 L 11.390625 16.507812 C 12.621094 16.253906 13.773438 15.691406 14.699219 14.835938 C 14.742188 14.796875 14.785156 14.757812 14.828125 14.71875 C 14.984375 14.585938 15.125 14.4375 15.257812 14.28125 L 15.308594 14.226562 C 15.527344 13.976562 15.726562 13.707031 15.90625 13.425781 L 15.929688 13.390625 C 16.242188 12.898438 16.484375 12.363281 16.671875 11.8125 L 16.691406 11.75 C 16.789062 11.453125 16.851562 11.15625 16.902344 10.851562 L 16.914062 10.800781 C 16.976562 10.421875 16.988281 10.042969 16.988281 9.65625 L 16.988281 9.585938 C 16.988281 9.230469 16.972656 8.890625 16.90625 8.539062 C 16.898438 8.503906 16.890625 8.46875 16.886719 8.433594 C 16.867188 8.339844 16.847656 8.246094 16.828125 8.152344 L 16.8125 8.097656 C 16.566406 7 16.023438 5.933594 15.25 5.109375 C 15.210938 5.066406 15.171875 5.023438 15.136719 4.984375 C 15.058594 4.894531 14.976562 4.808594 14.890625 4.726562 L 14.84375 4.679688 C 14.734375 4.570312 14.617188 4.46875 14.496094 4.375 C 14.460938 4.34375 14.421875 4.3125 14.386719 4.28125 C 13.671875 3.691406 12.804688 3.257812 11.910156 3.011719 L 11.84375 2.992188 C 10.15625 2.550781 8.328125 2.726562 6.777344 3.539062 "/>
<path style=" stroke:none;fill-rule:nonzero;fill:rgb(0%,0%,0%);fill-opacity:1;" d="M 12.054688 0.761719 C 12.117188 0.777344 12.179688 0.789062 12.242188 0.796875 C 12.6875 0.886719 13.113281 1.035156 13.535156 1.203125 L 13.59375 1.222656 C 13.625 1.234375 13.652344 1.25 13.683594 1.257812 C 13.714844 1.273438 13.746094 1.285156 13.777344 1.296875 C 13.96875 1.375 14.15625 1.46875 14.34375 1.558594 C 14.398438 1.589844 14.457031 1.617188 14.515625 1.644531 L 14.628906 1.703125 L 14.679688 1.726562 C 14.789062 1.78125 14.882812 1.839844 14.980469 1.910156 C 15.023438 1.9375 15.0625 1.964844 15.109375 1.988281 C 15.210938 2.042969 15.304688 2.109375 15.402344 2.175781 C 15.453125 2.210938 15.453125 2.210938 15.496094 2.234375 L 15.496094 2.273438 L 15.535156 2.285156 C 15.601562 2.316406 15.65625 2.355469 15.710938 2.398438 L 15.746094 2.425781 C 15.769531 2.445312 15.792969 2.460938 15.816406 2.480469 C 15.84375 2.503906 15.871094 2.523438 15.898438 2.546875 C 16.027344 2.648438 16.144531 2.753906 16.261719 2.867188 C 16.328125 2.925781 16.390625 2.984375 16.457031 3.042969 C 16.519531 3.097656 16.578125 3.152344 16.632812 3.210938 L 16.726562 3.304688 C 16.796875 3.371094 16.859375 3.4375 16.929688 3.5 C 16.957031 3.53125 16.988281 3.558594 17.015625 3.585938 C 17.039062 3.609375 17.054688 3.625 17.078125 3.648438 C 17.210938 3.777344 17.335938 3.914062 17.453125 4.0625 C 17.480469 4.09375 17.507812 4.128906 17.53125 4.160156 C 17.589844 4.234375 17.589844 4.234375 17.589844 4.277344 L 17.628906 4.277344 C 17.707031 4.382812 17.707031 4.382812 17.707031 4.433594 L 17.746094 4.433594 C 17.773438 4.46875 17.773438 4.46875 17.808594 4.523438 L 17.84375 4.582031 L 17.882812 4.648438 L 17.921875 4.707031 C 18.070312 4.945312 18.210938 5.191406 18.335938 5.445312 L 18.375 5.519531 C 18.402344 5.570312 18.429688 5.625 18.453125 5.675781 C 18.480469 5.726562 18.507812 5.78125 18.535156 5.832031 C 18.8125 6.382812 18.8125 6.382812 18.902344 6.652344 L 18.929688 6.71875 C 19.453125 8.207031 19.640625 9.8125 19.3125 11.710938 L 19.300781 11.785156 C 19.257812 12.027344 19.203125 12.265625 19.132812 12.503906 C 19.117188 12.558594 19.101562 12.609375 19.085938 12.664062 C 19.023438 12.882812 18.957031 13.085938 18.863281 13.289062 C 18.851562 13.324219 18.835938 13.355469 18.824219 13.390625 C 18.753906 13.5625 18.683594 13.730469 18.597656 13.898438 C 18.574219 13.945312 18.554688 13.992188 18.535156 14.039062 C 18.433594 14.300781 18.28125 14.546875 18.140625 14.789062 C 18.128906 14.804688 18.117188 14.824219 18.109375 14.839844 C 17.914062 15.171875 17.679688 15.476562 17.445312 15.78125 C 17.414062 15.820312 17.386719 15.859375 17.355469 15.898438 L 17.328125 15.933594 C 17.304688 15.964844 17.28125 16 17.257812 16.03125 L 17.21875 16.074219 L 17.179688 16.074219 L 17.179688 16.113281 L 17.140625 16.113281 L 17.125 16.144531 C 17.09375 16.199219 17.0625 16.242188 17.023438 16.292969 L 16.980469 16.34375 L 16.945312 16.382812 L 16.90625 16.382812 L 16.90625 16.421875 L 16.867188 16.421875 L 16.867188 16.460938 L 16.828125 16.460938 L 16.828125 16.5 L 16.789062 16.5 L 16.789062 16.539062 L 16.75 16.539062 L 16.75 16.578125 L 16.710938 16.578125 L 16.695312 16.613281 C 16.667969 16.660156 16.640625 16.691406 16.601562 16.730469 L 16.566406 16.765625 C 16.53125 16.792969 16.53125 16.792969 16.492188 16.792969 L 16.492188 16.832031 C 16.460938 16.863281 16.425781 16.890625 16.390625 16.917969 C 16.3125 16.976562 16.3125 16.976562 16.242188 17.042969 C 16.21875 17.066406 16.21875 17.066406 16.179688 17.066406 L 16.179688 17.105469 L 16.140625 17.105469 L 16.140625 17.144531 C 16.101562 17.179688 16.058594 17.210938 16.015625 17.242188 C 15.992188 17.261719 15.96875 17.28125 15.941406 17.300781 L 15.902344 17.328125 C 15.851562 17.371094 15.804688 17.410156 15.753906 17.453125 C 15.679688 17.511719 15.601562 17.566406 15.523438 17.617188 C 15.464844 17.65625 15.410156 17.695312 15.355469 17.734375 C 15.234375 17.820312 15.109375 17.890625 14.976562 17.960938 C 14.914062 17.996094 14.851562 18.035156 14.789062 18.074219 C 14.535156 18.230469 14.261719 18.359375 13.996094 18.496094 L 13.945312 18.519531 C 13.839844 18.574219 13.726562 18.617188 13.613281 18.664062 L 13.570312 18.679688 C 12.847656 18.976562 12.042969 19.175781 11.265625 19.242188 C 11.222656 19.246094 11.179688 19.253906 11.140625 19.265625 C 10.480469 19.398438 9.761719 19.359375 9.097656 19.296875 L 9.023438 19.289062 C 8.90625 19.277344 8.789062 19.261719 8.671875 19.238281 C 8.605469 19.222656 8.535156 19.214844 8.464844 19.203125 C 8.085938 19.140625 7.714844 19.070312 7.34375 18.972656 L 7.289062 18.960938 C 7.039062 18.894531 6.796875 18.8125 6.554688 18.71875 C 6.46875 18.6875 6.378906 18.65625 6.289062 18.625 L 6.238281 18.609375 C 6.210938 18.597656 6.179688 18.589844 6.148438 18.578125 C 6.117188 18.566406 6.082031 18.554688 6.050781 18.542969 C 5.730469 18.449219 5.414062 18.554688 5.105469 18.636719 C 4.835938 18.710938 4.566406 18.777344 4.292969 18.839844 C 3.960938 18.914062 3.625 18.996094 3.296875 19.078125 L 3.222656 19.09375 C 2.972656 19.15625 2.726562 19.214844 2.480469 19.285156 C 2.394531 19.308594 2.308594 19.328125 2.222656 19.347656 L 2.179688 19.359375 C 2.074219 19.378906 1.96875 19.398438 1.859375 19.402344 L 1.808594 19.40625 C 1.464844 19.414062 1.15625 19.316406 0.886719 19.101562 C 0.808594 19.023438 0.757812 18.933594 0.703125 18.835938 L 0.679688 18.789062 C 0.414062 18.304688 0.609375 17.6875 0.746094 17.191406 C 0.777344 17.082031 0.804688 16.96875 0.835938 16.859375 L 0.871094 16.730469 C 0.894531 16.644531 0.917969 16.558594 0.941406 16.472656 C 0.980469 16.320312 1.023438 16.171875 1.0625 16.023438 C 1.09375 15.910156 1.121094 15.800781 1.152344 15.6875 L 1.203125 15.496094 C 1.234375 15.386719 1.265625 15.273438 1.300781 15.164062 C 1.351562 15 1.390625 14.839844 1.429688 14.671875 L 1.441406 14.609375 C 1.476562 14.421875 1.484375 14.25 1.433594 14.066406 L 1.414062 13.992188 C 1.386719 13.898438 1.351562 13.808594 1.3125 13.71875 L 1.273438 13.628906 L 1.257812 13.582031 C 1.105469 13.210938 0.984375 12.839844 0.882812 12.453125 L 0.867188 12.394531 C 0.792969 12.128906 0.734375 11.859375 0.6875 11.585938 C 0.660156 11.445312 0.660156 11.445312 0.625 11.300781 C 0.601562 11.199219 0.589844 11.09375 0.578125 10.988281 C 0.574219 10.96875 0.570312 10.945312 0.570312 10.921875 C 0.390625 9.292969 0.65625 7.4375 1.421875 5.96875 C 1.445312 5.917969 1.46875 5.867188 1.488281 5.8125 C 1.53125 5.703125 1.585938 5.605469 1.644531 5.5 C 1.667969 5.460938 1.691406 5.417969 1.710938 5.375 C 1.832031 5.160156 1.957031 4.949219 2.09375 4.746094 C 2.136719 4.6875 2.175781 4.625 2.214844 4.5625 C 2.277344 4.472656 2.34375 4.382812 2.410156 4.296875 L 2.441406 4.253906 C 2.542969 4.125 2.644531 4 2.746094 3.875 L 2.789062 3.820312 L 2.828125 3.773438 C 2.851562 3.742188 2.875 3.707031 2.898438 3.671875 L 2.9375 3.671875 L 2.9375 3.632812 L 2.976562 3.632812 L 2.992188 3.601562 C 3.023438 3.546875 3.0625 3.507812 3.109375 3.460938 L 3.195312 3.375 C 3.222656 3.347656 3.25 3.320312 3.28125 3.289062 L 3.386719 3.183594 C 3.429688 3.148438 3.429688 3.148438 3.46875 3.148438 L 3.46875 3.109375 L 3.507812 3.109375 L 3.507812 3.070312 L 3.546875 3.070312 L 3.546875 3.03125 L 3.585938 3.03125 L 3.585938 2.992188 C 3.613281 2.96875 3.644531 2.941406 3.675781 2.917969 C 3.765625 2.84375 3.855469 2.769531 3.9375 2.6875 C 4.039062 2.59375 4.140625 2.507812 4.25 2.429688 L 4.3125 2.382812 C 4.472656 2.265625 4.632812 2.160156 4.800781 2.058594 L 4.863281 2.015625 C 5.136719 1.847656 5.417969 1.699219 5.707031 1.554688 C 5.765625 1.527344 5.820312 1.5 5.878906 1.46875 L 5.992188 1.414062 L 6.042969 1.390625 C 6.15625 1.332031 6.269531 1.285156 6.386719 1.242188 C 6.414062 1.230469 6.4375 1.21875 6.464844 1.207031 C 6.710938 1.109375 6.957031 1.027344 7.210938 0.949219 L 7.257812 0.933594 C 7.914062 0.726562 8.597656 0.636719 9.28125 0.5625 C 9.316406 0.558594 9.351562 0.554688 9.390625 0.550781 C 10.253906 0.46875 11.214844 0.542969 12.054688 0.761719 M 4.523438 3.363281 L 4.484375 3.398438 C 4.445312 3.429688 4.40625 3.464844 4.367188 3.5 L 4.316406 3.542969 C 4.199219 3.648438 4.085938 3.757812 3.96875 3.871094 L 3.929688 3.910156 C 3.84375 3.996094 3.761719 4.085938 3.683594 4.179688 L 3.65625 4.210938 C 3.285156 4.632812 2.960938 5.09375 2.683594 5.582031 L 2.652344 5.636719 C 2.15625 6.503906 1.847656 7.449219 1.6875 8.429688 L 1.679688 8.5 C 1.617188 8.898438 1.597656 9.292969 1.597656 9.691406 L 1.597656 9.761719 C 1.601562 10.15625 1.625 10.542969 1.683594 10.933594 L 1.695312 11.007812 C 1.746094 11.328125 1.8125 11.636719 1.898438 11.945312 L 1.914062 12 C 2.058594 12.507812 2.257812 12.984375 2.492188 13.457031 L 2.511719 13.492188 C 2.539062 13.554688 2.570312 13.609375 2.609375 13.664062 C 2.675781 13.765625 2.714844 13.839844 2.691406 13.960938 C 2.679688 14.019531 2.660156 14.078125 2.640625 14.132812 C 2.617188 14.210938 2.59375 14.289062 2.574219 14.371094 C 2.554688 14.441406 2.535156 14.515625 2.515625 14.585938 L 2.503906 14.625 L 2.480469 14.707031 C 2.449219 14.824219 2.414062 14.941406 2.382812 15.058594 L 2.355469 15.15625 C 2.222656 15.640625 2.089844 16.125 1.953125 16.609375 L 1.777344 17.253906 C 1.730469 17.429688 1.679688 17.601562 1.632812 17.777344 L 1.621094 17.820312 C 1.605469 17.878906 1.585938 17.941406 1.570312 18 L 1.554688 18.0625 L 1.539062 18.117188 C 1.527344 18.15625 1.527344 18.15625 1.527344 18.195312 C 1.726562 18.164062 1.921875 18.113281 2.117188 18.0625 C 2.152344 18.050781 2.191406 18.042969 2.226562 18.03125 C 2.308594 18.011719 2.390625 17.988281 2.46875 17.96875 C 2.597656 17.933594 2.726562 17.902344 2.851562 17.867188 L 2.917969 17.851562 L 3.257812 17.761719 C 3.59375 17.671875 3.933594 17.585938 4.273438 17.496094 L 4.34375 17.476562 C 4.558594 17.421875 4.769531 17.367188 4.984375 17.3125 L 5.3125 17.226562 C 5.375 17.210938 5.433594 17.195312 5.492188 17.179688 L 5.648438 17.140625 C 5.71875 17.121094 5.789062 17.101562 5.855469 17.082031 C 5.980469 17.046875 6.050781 17.070312 6.160156 17.128906 L 6.210938 17.15625 C 7.164062 17.671875 8.285156 17.964844 9.363281 18.039062 L 9.40625 18.042969 C 10.53125 18.132812 11.664062 17.96875 12.734375 17.609375 L 12.796875 17.589844 C 13.875 17.222656 14.859375 16.621094 15.695312 15.851562 C 15.746094 15.804688 15.796875 15.757812 15.851562 15.710938 C 15.984375 15.59375 16.109375 15.46875 16.222656 15.335938 C 16.261719 15.289062 16.300781 15.25 16.34375 15.203125 C 16.441406 15.09375 16.53125 14.976562 16.625 14.859375 C 16.648438 14.832031 16.671875 14.800781 16.695312 14.769531 C 16.953125 14.449219 17.175781 14.097656 17.375 13.738281 L 17.402344 13.6875 C 17.949219 12.6875 18.289062 11.597656 18.394531 10.46875 L 18.398438 10.414062 C 18.421875 10.179688 18.417969 9.945312 18.417969 9.710938 L 18.417969 9.636719 C 18.417969 9.28125 18.40625 8.933594 18.355469 8.578125 L 18.34375 8.507812 C 18.160156 7.25 17.699219 6.019531 16.964844 4.976562 L 16.9375 4.941406 C 16.746094 4.667969 16.539062 4.410156 16.316406 4.160156 L 16.269531 4.105469 C 16.152344 3.976562 16.03125 3.851562 15.90625 3.730469 C 15.886719 3.710938 15.867188 3.6875 15.847656 3.671875 C 15.71875 3.539062 15.582031 3.417969 15.4375 3.304688 C 15.414062 3.285156 15.394531 3.265625 15.371094 3.25 C 14.953125 2.890625 14.488281 2.59375 14.007812 2.328125 L 13.960938 2.304688 C 12.773438 1.644531 11.378906 1.332031 10.023438 1.335938 L 9.976562 1.335938 C 8.042969 1.339844 6.121094 2.015625 4.523438 3.363281 "/>
<path style=" stroke:none;fill-rule:nonzero;fill:rgb(99.607843%,99.607843%,99.607843%);fill-opacity:1;" d="M 7.214844 5.828125 L 7.289062 5.824219 C 7.453125 5.824219 7.613281 5.835938 7.75 5.9375 C 7.941406 6.132812 8.039062 6.460938 8.140625 6.710938 C 8.160156 6.761719 8.179688 6.8125 8.199219 6.859375 C 8.214844 6.894531 8.226562 6.929688 8.242188 6.960938 C 8.292969 7.085938 8.34375 7.210938 8.394531 7.332031 C 8.417969 7.382812 8.4375 7.433594 8.460938 7.484375 C 8.476562 7.519531 8.488281 7.550781 8.503906 7.585938 C 8.523438 7.632812 8.542969 7.675781 8.5625 7.722656 L 8.578125 7.765625 C 8.625 7.867188 8.636719 7.964844 8.605469 8.078125 L 8.550781 8.1875 L 8.527344 8.230469 C 8.46875 8.335938 8.40625 8.429688 8.324219 8.519531 L 8.242188 8.625 C 8.160156 8.722656 8.078125 8.8125 7.992188 8.90625 C 7.925781 8.976562 7.921875 9.03125 7.925781 9.125 C 7.941406 9.230469 7.996094 9.308594 8.050781 9.398438 L 8.070312 9.429688 C 8.414062 9.964844 8.835938 10.484375 9.34375 10.875 L 9.402344 10.921875 C 9.816406 11.25 10.273438 11.492188 10.753906 11.703125 L 10.8125 11.730469 C 10.953125 11.789062 10.953125 11.789062 11.105469 11.789062 C 11.199219 11.742188 11.265625 11.675781 11.335938 11.597656 L 11.367188 11.566406 C 11.464844 11.457031 11.554688 11.339844 11.648438 11.222656 C 11.707031 11.148438 11.769531 11.070312 11.828125 10.996094 C 11.886719 10.925781 11.9375 10.851562 11.988281 10.777344 C 12.0625 10.710938 12.140625 10.710938 12.238281 10.710938 C 12.46875 10.742188 12.703125 10.882812 12.910156 10.980469 L 13.007812 11.027344 C 13.273438 11.152344 13.53125 11.28125 13.792969 11.414062 C 13.84375 11.4375 13.898438 11.464844 13.949219 11.488281 L 13.992188 11.507812 C 14.03125 11.527344 14.066406 11.546875 14.101562 11.5625 C 14.179688 11.605469 14.246094 11.652344 14.277344 11.734375 C 14.304688 12.15625 14.222656 12.65625 13.9375 12.984375 C 13.695312 13.238281 13.40625 13.417969 13.085938 13.5625 L 13.03125 13.585938 C 12.136719 13.960938 11.023438 13.492188 10.1875 13.15625 C 10 13.078125 9.816406 12.996094 9.636719 12.898438 L 9.59375 12.878906 C 9.386719 12.765625 9.1875 12.648438 8.992188 12.511719 L 8.953125 12.484375 C 8.683594 12.296875 8.425781 12.085938 8.183594 11.859375 C 8.140625 11.820312 8.097656 11.78125 8.050781 11.746094 C 7.886719 11.601562 7.734375 11.449219 7.59375 11.285156 C 7.554688 11.238281 7.511719 11.191406 7.46875 11.144531 C 7.375 11.046875 7.289062 10.9375 7.207031 10.828125 C 7.167969 10.78125 7.132812 10.734375 7.09375 10.691406 C 6.945312 10.507812 6.808594 10.320312 6.675781 10.128906 C 6.640625 10.078125 6.605469 10.03125 6.574219 9.980469 C 6.046875 9.226562 5.597656 8.339844 5.761719 7.390625 C 5.871094 6.839844 6.175781 6.289062 6.640625 5.953125 C 6.828125 5.835938 7 5.828125 7.214844 5.828125 "/>
</g>
</svg>
